<svg width="62" height="62" viewBox="0 0 62 62" fill="none" xmlns="http://www.w3.org/2000/svg">
<path d="M28.7438 18.1539C36.9122 20.196 41.4051 25.6073 43.8765 31.7692" stroke="#FFC857" strokeWidth="3.02562"/>
<path d="M21.1795 21.1795C29.9804 23.3798 34.8702 28.7801 37.5726 34.7948" stroke="#FFC857" strokeWidth="3.02562"/>
<path d="M15.1284 25.718C25.2029 28.2367 30.1524 33.5508 32.5625 39.3333" stroke="#FFC857" strokeWidth="3.02562"/>
<path d="M39.0561 32.9549L40.1318 34.1121L25.9385 49.3805C24.8208 50.583 24.2053 52.1816 24.2053 53.882C24.2053 55.5824 24.8208 57.181 25.9385 58.3849C27.0576 59.5859 28.5436 60.248 30.123 60.248C31.7024 60.248 33.1884 59.5859 34.3075 58.3835L48.5007 43.115L49.5764 44.2722L51.4359 42.2719L40.9155 30.9545L39.0561 32.9549ZM43.2405 44.773L40.0805 41.3721L38.221 43.3725L41.3811 46.7733L39.5216 48.7751L38.2197 47.3745L36.3602 49.3749L37.6621 50.7754L35.8014 52.7772L32.6413 49.3763L30.7805 51.3752L33.9406 54.7761L32.4467 56.3831C31.204 57.7186 29.0407 57.7186 27.798 56.3831C27.1773 55.714 26.8354 54.827 26.8354 53.882C26.8354 52.937 27.1773 52.05 27.798 51.3809L41.9912 36.1124L46.6399 41.1132L43.2405 44.773Z" fill="#7E3AF2"/>
<mask id="path-5-inside-1_106_428" fill="white">
<path d="M21.2513 49.8516C20.8783 50.573 19.9882 50.8594 19.2925 50.4404C16.3021 48.6395 13.7614 46.1691 11.8752 43.2161C9.72456 39.8492 8.50091 35.9742 8.32792 31.9828C8.15492 27.9914 9.03871 24.025 10.89 20.4846C12.7412 16.9443 15.4943 13.9553 18.8709 11.82C22.2475 9.68468 26.1281 8.47861 30.1202 8.3237C34.1124 8.16879 38.0747 9.07055 41.6066 10.9378C45.1386 12.8051 48.115 15.5717 50.235 18.9579C52.0944 21.928 53.2372 25.2823 53.5824 28.7561C53.6627 29.5642 53.0223 30.2455 52.2107 30.2733V30.2733C51.3991 30.3012 50.7243 29.6646 50.6362 28.8573C50.3136 25.9013 49.3269 23.0496 47.7423 20.5185C45.8971 17.5711 43.3064 15.163 40.2321 13.5377C37.1579 11.9124 33.7091 11.1275 30.2342 11.2623C26.7594 11.3972 23.3818 12.447 20.4427 14.3056C17.5037 16.1642 15.1074 18.7658 13.496 21.8473C11.8847 24.9289 11.1154 28.3813 11.266 31.8554C11.4166 35.3296 12.4817 38.7024 14.3536 41.633C15.9611 44.1496 18.1146 46.2635 20.6469 47.8221C21.3385 48.2477 21.6243 49.1303 21.2513 49.8516V49.8516Z"/>
</mask>
<path d="M21.2513 49.8516C20.8783 50.573 19.9882 50.8594 19.2925 50.4404C16.3021 48.6395 13.7614 46.1691 11.8752 43.2161C9.72456 39.8492 8.50091 35.9742 8.32792 31.9828C8.15492 27.9914 9.03871 24.025 10.89 20.4846C12.7412 16.9443 15.4943 13.9553 18.8709 11.82C22.2475 9.68468 26.1281 8.47861 30.1202 8.3237C34.1124 8.16879 38.0747 9.07055 41.6066 10.9378C45.1386 12.8051 48.115 15.5717 50.235 18.9579C52.0944 21.928 53.2372 25.2823 53.5824 28.7561C53.6627 29.5642 53.0223 30.2455 52.2107 30.2733V30.2733C51.3991 30.3012 50.7243 29.6646 50.6362 28.8573C50.3136 25.9013 49.3269 23.0496 47.7423 20.5185C45.8971 17.5711 43.3064 15.163 40.2321 13.5377C37.1579 11.9124 33.7091 11.1275 30.2342 11.2623C26.7594 11.3972 23.3818 12.447 20.4427 14.3056C17.5037 16.1642 15.1074 18.7658 13.496 21.8473C11.8847 24.9289 11.1154 28.3813 11.266 31.8554C11.4166 35.3296 12.4817 38.7024 14.3536 41.633C15.9611 44.1496 18.1146 46.2635 20.6469 47.8221C21.3385 48.2477 21.6243 49.1303 21.2513 49.8516V49.8516Z" stroke="#7E3AF2" strokeWidth="60.5123" stroke-linejoin="round" mask="url(#path-5-inside-1_106_428)"/>
</svg>
